STARTFONT 2.1
FONT -ibm-courier-medium-o-normal--10-100-75-75-m-54-iso8859-2
SIZE 10 75 75
FONTBOUNDINGBOX 9 11 -1 -1
COMMENT $Header: courO10.bdf,v 1.1 96/01/22 23:45:35 peterlin Exp $
COMMENT 
COMMENT Copyright International Business Machines,Corp. 1991
COMMENT IBM Courier is a Trademark of the IBM Corporation.
COMMENT 
COMMENT Automatic rendering from Adobe Type 1 outline:
COMMENT Primoz Peterlin <primoz.peterlin@biofiz.mf.uni-lj.si>
COMMENT couri.pfa rendered at 11.000000 points
COMMENT Checksum eb69a063
STARTPROPERTIES 3
FONT_ASCENT 9
FONT_DESCENT 1
DEFAULT_CHAR 32
ENDPROPERTIES
CHARS 191
STARTCHAR space
ENCODING 32
SWIDTH 606 0
DWIDTH 7 0
BBX 0 0 0 1
BITMAP
ENDCHAR
STARTCHAR exclam
ENCODING 33
SWIDTH 606 0
DWIDTH 7 0
BBX 3 6 2 1
BITMAP
20
20
20
20
00
40
ENDCHAR
STARTCHAR quotedbl
ENCODING 34
SWIDTH 606 0
DWIDTH 7 0
BBX 4 3 2 4
BITMAP
a0
a0
a0
ENDCHAR
STARTCHAR numbersign
ENCODING 35
SWIDTH 606 0
DWIDTH 7 0
BBX 6 8 1 0
BITMAP
28
28
7c
48
f8
50
50
90
ENDCHAR
STARTCHAR dollar
ENCODING 36
SWIDTH 606 0
DWIDTH 7 0
BBX 6 8 1 0
BITMAP
10
38
50
70
28
a8
f0
20
ENDCHAR
STARTCHAR percent
ENCODING 37
SWIDTH 606 0
DWIDTH 7 0
BBX 6 7 1 1
BITMAP
70
90
f8
e0
98
24
38
ENDCHAR
STARTCHAR ampersand
ENCODING 38
SWIDTH 606 0
DWIDTH 7 0
BBX 5 6 1 1
BITMAP
38
40
68
98
90
f0
ENDCHAR
STARTCHAR quoteright
ENCODING 39
SWIDTH 606 0
DWIDTH 7 0
BBX 3 3 2 4
BITMAP
20
40
40
ENDCHAR
STARTCHAR parenleft
ENCODING 40
SWIDTH 606 0
DWIDTH 7 0
BBX 4 8 3 0
BITMAP
20
20
40
40
80
80
80
c0
ENDCHAR
STARTCHAR parenright
ENCODING 41
SWIDTH 606 0
DWIDTH 7 0
BBX 3 8 1 0
BITMAP
20
20
20
20
20
20
40
40
ENDCHAR
STARTCHAR asterisk
ENCODING 42
SWIDTH 606 0
DWIDTH 7 0
BBX 4 4 2 3
BITMAP
20
b0
60
a0
ENDCHAR
STARTCHAR plus
ENCODING 43
SWIDTH 606 0
DWIDTH 7 0
BBX 6 5 1 2
BITMAP
10
10
fc
10
10
ENDCHAR
STARTCHAR comma
ENCODING 44
SWIDTH 606 0
DWIDTH 7 0
BBX 3 3 1 0
BITMAP
60
40
80
ENDCHAR
STARTCHAR minus
ENCODING 45
SWIDTH 606 0
DWIDTH 7 0
BBX 5 1 2 4
BITMAP
f8
ENDCHAR
STARTCHAR period
ENCODING 46
SWIDTH 606 0
DWIDTH 7 0
BBX 2 1 2 1
BITMAP
c0
ENDCHAR
STARTCHAR slash
ENCODING 47
SWIDTH 606 0
DWIDTH 7 0
BBX 6 9 1 0
BITMAP
04
08
08
10
10
20
40
40
80
ENDCHAR
STARTCHAR zero
ENCODING 48
SWIDTH 606 0
DWIDTH 7 0
BBX 4 7 2 1
BITMAP
70
50
90
90
90
a0
e0
ENDCHAR
STARTCHAR one
ENCODING 49
SWIDTH 606 0
DWIDTH 7 0
BBX 4 7 1 1
BITMAP
20
50
10
20
20
20
f0
ENDCHAR
STARTCHAR two
ENCODING 50
SWIDTH 606 0
DWIDTH 7 0
BBX 5 7 1 1
BITMAP
38
48
08
18
20
48
f0
ENDCHAR
STARTCHAR three
ENCODING 51
SWIDTH 606 0
DWIDTH 7 0
BBX 5 7 1 1
BITMAP
38
08
08
38
08
08
f0
ENDCHAR
STARTCHAR four
ENCODING 52
SWIDTH 606 0
DWIDTH 7 0
BBX 5 7 1 1
BITMAP
08
38
70
50
f8
10
78
ENDCHAR
STARTCHAR five
ENCODING 53
SWIDTH 606 0
DWIDTH 7 0
BBX 5 7 1 1
BITMAP
38
40
40
78
08
08
70
ENDCHAR
STARTCHAR six
ENCODING 54
SWIDTH 606 0
DWIDTH 7 0
BBX 6 7 1 1
BITMAP
1c
20
40
f0
88
88
70
ENDCHAR
STARTCHAR seven
ENCODING 55
SWIDTH 606 0
DWIDTH 7 0
BBX 5 7 2 1
BITMAP
f8
90
10
20
20
40
40
ENDCHAR
STARTCHAR eight
ENCODING 56
SWIDTH 606 0
DWIDTH 7 0
BBX 6 7 1 1
BITMAP
38
44
48
30
48
88
70
ENDCHAR
STARTCHAR nine
ENCODING 57
SWIDTH 606 0
DWIDTH 7 0
BBX 6 7 1 1
BITMAP
38
44
44
7c
08
10
e0
ENDCHAR
STARTCHAR colon
ENCODING 58
SWIDTH 606 0
DWIDTH 7 0
BBX 3 4 2 1
BITMAP
60
00
00
c0
ENDCHAR
STARTCHAR semicolon
ENCODING 59
SWIDTH 606 0
DWIDTH 7 0
BBX 3 5 2 0
BITMAP
60
00
40
40
80
ENDCHAR
STARTCHAR less
ENCODING 60
SWIDTH 606 0
DWIDTH 7 0
BBX 5 5 1 2
BITMAP
18
60
c0
30
08
ENDCHAR
STARTCHAR equal
ENCODING 61
SWIDTH 606 0
DWIDTH 7 0
BBX 5 3 2 3
BITMAP
f8
00
f8
ENDCHAR
STARTCHAR greater
ENCODING 62
SWIDTH 606 0
DWIDTH 7 0
BBX 5 5 2 2
BITMAP
c0
30
18
e0
80
ENDCHAR
STARTCHAR question
ENCODING 63
SWIDTH 606 0
DWIDTH 7 0
BBX 4 6 2 1
BITMAP
70
10
20
20
00
40
ENDCHAR
STARTCHAR at
ENCODING 64
SWIDTH 606 0
DWIDTH 7 0
BBX 6 6 1 1
BITMAP
38
7c
b4
d4
f8
78
ENDCHAR
STARTCHAR A
ENCODING 65
SWIDTH 606 0
DWIDTH 7 0
BBX 6 6 0 1
BITMAP
38
28
28
38
44
cc
ENDCHAR
STARTCHAR B
ENCODING 66
SWIDTH 606 0
DWIDTH 7 0
BBX 7 6 0 1
BITMAP
3e
22
3c
22
22
fc
ENDCHAR
STARTCHAR C
ENCODING 67
SWIDTH 606 0
DWIDTH 7 0
BBX 7 6 1 1
BITMAP
3a
44
80
80
80
78
ENDCHAR
STARTCHAR D
ENCODING 68
SWIDTH 606 0
DWIDTH 7 0
BBX 7 6 0 1
BITMAP
3c
22
22
22
44
f8
ENDCHAR
STARTCHAR E
ENCODING 69
SWIDTH 606 0
DWIDTH 7 0
BBX 7 6 0 1
BITMAP
7e
22
38
48
44
fc
ENDCHAR
STARTCHAR F
ENCODING 70
SWIDTH 606 0
DWIDTH 7 0
BBX 7 6 1 1
BITMAP
7c
22
30
48
40
e0
ENDCHAR
STARTCHAR G
ENCODING 71
SWIDTH 606 0
DWIDTH 7 0
BBX 6 6 1 1
BITMAP
3c
44
80
9c
88
78
ENDCHAR
STARTCHAR H
ENCODING 72
SWIDTH 606 0
DWIDTH 7 0
BBX 7 6 0 1
BITMAP
66
24
3c
44
44
cc
ENDCHAR
STARTCHAR I
ENCODING 73
SWIDTH 606 0
DWIDTH 7 0
BBX 6 6 1 1
BITMAP
7c
10
10
10
20
f8
ENDCHAR
STARTCHAR J
ENCODING 74
SWIDTH 606 0
DWIDTH 7 0
BBX 7 6 1 1
BITMAP
1e
08
08
88
88
f0
ENDCHAR
STARTCHAR K
ENCODING 75
SWIDTH 606 0
DWIDTH 7 0
BBX 7 6 1 1
BITMAP
76
28
30
50
48
ec
ENDCHAR
STARTCHAR L
ENCODING 76
SWIDTH 606 0
DWIDTH 7 0
BBX 6 6 1 1
BITMAP
70
20
20
24
44
f8
ENDCHAR
STARTCHAR M
ENCODING 77
SWIDTH 606 0
DWIDTH 7 0
BBX 8 6 0 1
BITMAP
63
36
3a
5a
42
ee
ENDCHAR
STARTCHAR N
ENCODING 78
SWIDTH 606 0
DWIDTH 7 0
BBX 8 6 0 1
BITMAP
77
32
3a
4a
4c
ec
ENDCHAR
STARTCHAR O
ENCODING 79
SWIDTH 606 0
DWIDTH 7 0
BBX 6 6 1 1
BITMAP
38
44
84
84
88
70
ENDCHAR
STARTCHAR P
ENCODING 80
SWIDTH 606 0
DWIDTH 7 0
BBX 6 6 1 1
BITMAP
7c
24
2c
70
40
e0
ENDCHAR
STARTCHAR Q
ENCODING 81
SWIDTH 606 0
DWIDTH 7 0
BBX 6 8 1 -1
BITMAP
38
44
84
84
88
70
60
f8
ENDCHAR
STARTCHAR R
ENCODING 82
SWIDTH 606 0
DWIDTH 7 0
BBX 7 6 0 1
BITMAP
3e
2e
30
28
28
e6
ENDCHAR
STARTCHAR S
ENCODING 83
SWIDTH 606 0
DWIDTH 7 0
BBX 6 6 1 1
BITMAP
3c
44
70
08
88
f0
ENDCHAR
STARTCHAR T
ENCODING 84
SWIDTH 606 0
DWIDTH 7 0
BBX 6 6 1 1
BITMAP
7c
94
10
20
20
f0
ENDCHAR
STARTCHAR U
ENCODING 85
SWIDTH 606 0
DWIDTH 7 0
BBX 7 6 1 1
BITMAP
ee
44
44
84
88
f0
ENDCHAR
STARTCHAR V
ENCODING 86
SWIDTH 606 0
DWIDTH 7 0
BBX 7 6 1 1
BITMAP
ee
44
48
50
50
20
ENDCHAR
STARTCHAR W
ENCODING 87
SWIDTH 606 0
DWIDTH 7 0
BBX 7 6 1 1
BITMAP
ee
94
b4
b4
d8
98
ENDCHAR
STARTCHAR X
ENCODING 88
SWIDTH 606 0
DWIDTH 7 0
BBX 7 6 0 1
BITMAP
76
2c
10
28
48
cc
ENDCHAR
STARTCHAR Y
ENCODING 89
SWIDTH 606 0
DWIDTH 7 0
BBX 6 6 2 1
BITMAP
cc
48
50
20
20
e0
ENDCHAR
STARTCHAR Z
ENCODING 90
SWIDTH 606 0
DWIDTH 7 0
BBX 6 6 1 1
BITMAP
7c
48
10
60
44
f8
ENDCHAR
STARTCHAR bracketleft
ENCODING 91
SWIDTH 606 0
DWIDTH 7 0
BBX 4 8 3 0
BITMAP
30
40
40
40
40
80
80
c0
ENDCHAR
STARTCHAR backslash
ENCODING 92
SWIDTH 606 0
DWIDTH 7 0
BBX 3 9 2 0
BITMAP
80
80
40
40
40
40
20
20
20
ENDCHAR
STARTCHAR bracketright
ENCODING 93
SWIDTH 606 0
DWIDTH 7 0
BBX 4 8 1 0
BITMAP
30
10
10
10
20
20
20
c0
ENDCHAR
STARTCHAR asciicircum
ENCODING 94
SWIDTH 606 0
DWIDTH 7 0
BBX 5 5 2 2
BITMAP
20
50
50
88
88
ENDCHAR
STARTCHAR underscore
ENCODING 95
SWIDTH 606 0
DWIDTH 7 0
BBX 8 1 -1 -1
BITMAP
ff
ENDCHAR
STARTCHAR quoteleft
ENCODING 96
SWIDTH 606 0
DWIDTH 7 0
BBX 3 3 2 4
BITMAP
40
40
80
ENDCHAR
STARTCHAR a
ENCODING 97
SWIDTH 606 0
DWIDTH 7 0
BBX 5 5 1 1
BITMAP
78
08
78
98
e8
ENDCHAR
STARTCHAR b
ENCODING 98
SWIDTH 606 0
DWIDTH 7 0
BBX 7 7 0 1
BITMAP
60
20
3c
22
22
44
f8
ENDCHAR
STARTCHAR c
ENCODING 99
SWIDTH 606 0
DWIDTH 7 0
BBX 6 5 1 1
BITMAP
38
48
80
80
70
ENDCHAR
STARTCHAR d
ENCODING 100
SWIDTH 606 0
DWIDTH 7 0
BBX 6 6 1 1
BITMAP
04
34
48
88
88
78
ENDCHAR
STARTCHAR e
ENCODING 101
SWIDTH 606 0
DWIDTH 7 0
BBX 6 5 1 1
BITMAP
38
44
fc
80
78
ENDCHAR
STARTCHAR f
ENCODING 102
SWIDTH 606 0
DWIDTH 7 0
BBX 6 7 1 1
BITMAP
1c
20
78
20
20
40
f0
ENDCHAR
STARTCHAR g
ENCODING 103
SWIDTH 606 0
DWIDTH 7 0
BBX 6 7 1 -1
BITMAP
74
48
88
98
70
10
60
ENDCHAR
STARTCHAR h
ENCODING 104
SWIDTH 606 0
DWIDTH 7 0
BBX 6 7 0 1
BITMAP
20
20
3c
24
24
24
ec
ENDCHAR
STARTCHAR i
ENCODING 105
SWIDTH 606 0
DWIDTH 7 0
BBX 5 7 1 1
BITMAP
10
00
70
10
10
20
f8
ENDCHAR
STARTCHAR j
ENCODING 106
SWIDTH 606 0
DWIDTH 7 0
BBX 6 9 0 -1
BITMAP
04
00
78
10
10
10
10
10
e0
ENDCHAR
STARTCHAR k
ENCODING 107
SWIDTH 606 0
DWIDTH 7 0
BBX 6 7 1 1
BITMAP
60
20
2c
30
60
50
dc
ENDCHAR
STARTCHAR l
ENCODING 108
SWIDTH 606 0
DWIDTH 7 0
BBX 4 7 1 1
BITMAP
60
20
20
20
20
20
f0
ENDCHAR
STARTCHAR m
ENCODING 109
SWIDTH 606 0
DWIDTH 7 0
BBX 7 5 0 1
BITMAP
76
4a
4a
52
d6
ENDCHAR
STARTCHAR n
ENCODING 110
SWIDTH 606 0
DWIDTH 7 0
BBX 6 5 0 1
BITMAP
7c
24
24
44
ec
ENDCHAR
STARTCHAR o
ENCODING 111
SWIDTH 606 0
DWIDTH 7 0
BBX 6 5 1 1
BITMAP
38
44
84
88
70
ENDCHAR
STARTCHAR p
ENCODING 112
SWIDTH 606 0
DWIDTH 7 0
BBX 7 7 0 -1
BITMAP
7c
22
22
44
78
40
e0
ENDCHAR
STARTCHAR q
ENCODING 113
SWIDTH 606 0
DWIDTH 7 0
BBX 6 7 1 -1
BITMAP
34
48
88
88
78
08
38
ENDCHAR
STARTCHAR r
ENCODING 114
SWIDTH 606 0
DWIDTH 7 0
BBX 6 5 1 1
BITMAP
7c
20
20
20
f0
ENDCHAR
STARTCHAR s
ENCODING 115
SWIDTH 606 0
DWIDTH 7 0
BBX 5 5 1 1
BITMAP
38
48
70
88
f0
ENDCHAR
STARTCHAR t
ENCODING 116
SWIDTH 606 0
DWIDTH 7 0
BBX 4 6 2 1
BITMAP
40
f0
40
80
80
f0
ENDCHAR
STARTCHAR u
ENCODING 117
SWIDTH 606 0
DWIDTH 7 0
BBX 5 5 1 1
BITMAP
c8
48
88
88
f8
ENDCHAR
STARTCHAR v
ENCODING 118
SWIDTH 606 0
DWIDTH 7 0
BBX 6 5 1 1
BITMAP
cc
48
50
50
20
ENDCHAR
STARTCHAR w
ENCODING 119
SWIDTH 606 0
DWIDTH 7 0
BBX 7 5 1 1
BITMAP
c6
54
74
78
58
ENDCHAR
STARTCHAR x
ENCODING 120
SWIDTH 606 0
DWIDTH 7 0
BBX 7 5 0 1
BITMAP
76
2c
10
28
ec
ENDCHAR
STARTCHAR y
ENCODING 121
SWIDTH 606 0
DWIDTH 7 0
BBX 6 7 1 -1
BITMAP
ec
48
88
88
70
10
e0
ENDCHAR
STARTCHAR z
ENCODING 122
SWIDTH 606 0
DWIDTH 7 0
BBX 5 5 1 1
BITMAP
78
50
20
48
f0
ENDCHAR
STARTCHAR braceleft
ENCODING 123
SWIDTH 606 0
DWIDTH 7 0
BBX 4 8 3 0
BITMAP
30
40
40
40
40
40
80
c0
ENDCHAR
STARTCHAR bar
ENCODING 124
SWIDTH 606 0
DWIDTH 7 0
BBX 1 9 4 -1
BITMAP
80
80
80
80
80
80
80
80
80
ENDCHAR
STARTCHAR braceright
ENCODING 125
SWIDTH 606 0
DWIDTH 7 0
BBX 4 8 1 0
BITMAP
30
10
20
30
20
20
20
c0
ENDCHAR
STARTCHAR asciitilde
ENCODING 126
SWIDTH 606 0
DWIDTH 7 0
BBX 5 2 2 3
BITMAP
78
80
ENDCHAR
STARTCHAR space
ENCODING 160
SWIDTH 606 0
DWIDTH 7 0
BBX 0 0 0 1
BITMAP
ENDCHAR
STARTCHAR Aogonek
ENCODING 161
SWIDTH 606 0
DWIDTH 7 0
BBX 7 7 0 0
BITMAP
38
18
18
3c
44
ce
0c
ENDCHAR
STARTCHAR breve
ENCODING 162
SWIDTH 606 0
DWIDTH 7 0
BBX 4 2 3 6
BITMAP
b0
60
ENDCHAR
STARTCHAR Lslash
ENCODING 163
SWIDTH 606 0
DWIDTH 7 0
BBX 6 6 1 1
BITMAP
70
38
64
44
44
f8
ENDCHAR
STARTCHAR currency
ENCODING 164
SWIDTH 606 0
DWIDTH 7 0
BBX 5 5 2 2
BITMAP
88
f0
90
90
f0
ENDCHAR
STARTCHAR Lcaron
ENCODING 165
SWIDTH 606 0
DWIDTH 7 0
BBX 6 7 1 1
BITMAP
08
70
20
20
24
44
f8
ENDCHAR
STARTCHAR Sacute
ENCODING 166
SWIDTH 606 0
DWIDTH 7 0
BBX 6 8 1 1
BITMAP
10
00
3c
44
70
08
88
f0
ENDCHAR
STARTCHAR section
ENCODING 167
SWIDTH 606 0
DWIDTH 7 0
BBX 6 7 1 0
BITMAP
38
20
50
48
28
50
f0
ENDCHAR
STARTCHAR dieresis
ENCODING 168
SWIDTH 606 0
DWIDTH 7 0
BBX 3 1 3 7
BITMAP
a0
ENDCHAR
STARTCHAR Scaron
ENCODING 169
SWIDTH 606 0
DWIDTH 7 0
BBX 6 9 1 1
BITMAP
14
18
00
3c
44
70
08
88
f0
ENDCHAR
STARTCHAR Scedilla
ENCODING 170
SWIDTH 606 0
DWIDTH 7 0
BBX 6 8 1 -1
BITMAP
3c
44
60
18
88
f0
20
60
ENDCHAR
STARTCHAR Tcaron
ENCODING 171
SWIDTH 606 0
DWIDTH 7 0
BBX 6 9 1 1
BITMAP
14
18
00
7c
94
10
20
20
f0
ENDCHAR
STARTCHAR Zacute
ENCODING 172
SWIDTH 606 0
DWIDTH 7 0
BBX 6 8 1 1
BITMAP
10
00
7c
48
10
60
44
f8
ENDCHAR
STARTCHAR hyphen
ENCODING 173
SWIDTH 606 0
DWIDTH 7 0
BBX 2 1 3 4
BITMAP
c0
ENDCHAR
STARTCHAR Zcaron
ENCODING 174
SWIDTH 606 0
DWIDTH 7 0
BBX 6 9 1 1
BITMAP
14
18
00
7c
48
10
60
44
f8
ENDCHAR
STARTCHAR Zdotaccent
ENCODING 175
SWIDTH 606 0
DWIDTH 7 0
BBX 6 8 1 1
BITMAP
08
00
7c
48
10
60
44
f8
ENDCHAR
STARTCHAR degree
ENCODING 176
SWIDTH 606 0
DWIDTH 7 0
BBX 4 4 2 4
BITMAP
60
90
90
60
ENDCHAR
STARTCHAR aogonek
ENCODING 177
SWIDTH 606 0
DWIDTH 7 0
BBX 5 6 1 0
BITMAP
78
08
78
98
f8
18
ENDCHAR
STARTCHAR ogonek
ENCODING 178
SWIDTH 606 0
DWIDTH 7 0
BBX 2 1 2 0
BITMAP
80
ENDCHAR
STARTCHAR lslash
ENCODING 179
SWIDTH 606 0
DWIDTH 7 0
BBX 5 7 1 1
BITMAP
70
10
18
60
60
20
f0
ENDCHAR
STARTCHAR acute
ENCODING 180
SWIDTH 606 0
DWIDTH 7 0
BBX 2 1 4 7
BITMAP
80
ENDCHAR
STARTCHAR lcaron
ENCODING 181
SWIDTH 606 0
DWIDTH 7 0
BBX 6 7 1 1
BITMAP
68
20
20
20
20
20
f0
ENDCHAR
STARTCHAR sacute
ENCODING 182
SWIDTH 606 0
DWIDTH 7 0
BBX 5 7 1 1
BITMAP
10
00
38
48
70
88
f0
ENDCHAR
STARTCHAR caron
ENCODING 183
SWIDTH 606 0
DWIDTH 7 0
BBX 3 2 3 6
BITMAP
a0
c0
ENDCHAR
STARTCHAR cedilla
ENCODING 184
SWIDTH 606 0
DWIDTH 7 0
BBX 2 3 2 -1
BITMAP
40
40
c0
ENDCHAR
STARTCHAR scaron
ENCODING 185
SWIDTH 606 0
DWIDTH 7 0
BBX 5 7 1 1
BITMAP
28
30
38
48
70
88
f0
ENDCHAR
STARTCHAR scedilla
ENCODING 186
SWIDTH 606 0
DWIDTH 7 0
BBX 6 7 1 -1
BITMAP
34
48
70
88
f0
30
60
ENDCHAR
STARTCHAR tcaron
ENCODING 187
SWIDTH 606 0
DWIDTH 7 0
BBX 4 7 2 1
BITMAP
20
40
f0
40
80
80
f0
ENDCHAR
STARTCHAR zacute
ENCODING 188
SWIDTH 606 0
DWIDTH 7 0
BBX 5 7 1 1
BITMAP
10
00
78
50
20
48
f0
ENDCHAR
STARTCHAR hungarumlaut
ENCODING 189
SWIDTH 606 0
DWIDTH 7 0
BBX 3 1 3 7
BITMAP
60
ENDCHAR
STARTCHAR zcaron
ENCODING 190
SWIDTH 606 0
DWIDTH 7 0
BBX 5 7 1 1
BITMAP
28
30
78
50
20
48
f0
ENDCHAR
STARTCHAR zdotaccent
ENCODING 191
SWIDTH 606 0
DWIDTH 7 0
BBX 5 7 1 1
BITMAP
10
00
78
50
20
48
f0
ENDCHAR
STARTCHAR Racute
ENCODING 192
SWIDTH 606 0
DWIDTH 7 0
BBX 7 8 0 1
BITMAP
08
00
3e
2e
30
28
28
e6
ENDCHAR
STARTCHAR Aacute
ENCODING 193
SWIDTH 606 0
DWIDTH 7 0
BBX 6 8 0 1
BITMAP
08
00
38
28
28
38
44
cc
ENDCHAR
STARTCHAR Acircumflex
ENCODING 194
SWIDTH 606 0
DWIDTH 7 0
BBX 6 8 0 1
BITMAP
1c
00
38
28
28
38
44
cc
ENDCHAR
STARTCHAR Abreve
ENCODING 195
SWIDTH 606 0
DWIDTH 7 0
BBX 7 9 0 1
BITMAP
1e
0c
00
38
28
28
38
44
cc
ENDCHAR
STARTCHAR Adieresis
ENCODING 196
SWIDTH 606 0
DWIDTH 7 0
BBX 6 8 0 1
BITMAP
14
00
38
28
28
38
44
cc
ENDCHAR
STARTCHAR Lacute
ENCODING 197
SWIDTH 606 0
DWIDTH 7 0
BBX 6 8 1 1
BITMAP
20
00
70
20
20
24
44
f8
ENDCHAR
STARTCHAR Cacute
ENCODING 198
SWIDTH 606 0
DWIDTH 7 0
BBX 7 8 1 1
BITMAP
10
00
3a
44
80
80
80
78
ENDCHAR
STARTCHAR Ccedilla
ENCODING 199
SWIDTH 606 0
DWIDTH 7 0
BBX 6 8 1 -1
BITMAP
3c
44
80
80
80
78
20
30
ENDCHAR
STARTCHAR Ccaron
ENCODING 200
SWIDTH 606 0
DWIDTH 7 0
BBX 7 9 1 1
BITMAP
14
18
00
3a
44
80
80
80
78
ENDCHAR
STARTCHAR Eacute
ENCODING 201
SWIDTH 606 0
DWIDTH 7 0
BBX 7 8 0 1
BITMAP
08
00
7e
22
38
48
44
fc
ENDCHAR
STARTCHAR Eogonek
ENCODING 202
SWIDTH 606 0
DWIDTH 7 0
BBX 6 7 1 0
BITMAP
7c
24
70
48
44
f8
18
ENDCHAR
STARTCHAR Edieresis
ENCODING 203
SWIDTH 606 0
DWIDTH 7 0
BBX 7 8 0 1
BITMAP
0c
00
7e
22
38
48
44
fc
ENDCHAR
STARTCHAR Ecaron
ENCODING 204
SWIDTH 606 0
DWIDTH 7 0
BBX 7 9 0 1
BITMAP
0a
0c
00
7e
22
38
48
44
fc
ENDCHAR
STARTCHAR Iacute
ENCODING 205
SWIDTH 606 0
DWIDTH 7 0
BBX 6 8 1 1
BITMAP
10
00
7c
10
10
10
20
f8
ENDCHAR
STARTCHAR Icircumflex
ENCODING 206
SWIDTH 606 0
DWIDTH 7 0
BBX 6 8 1 1
BITMAP
38
00
7c
10
10
10
20
f8
ENDCHAR
STARTCHAR Dcaron
ENCODING 207
SWIDTH 606 0
DWIDTH 7 0
BBX 7 9 0 1
BITMAP
0a
0c
00
3c
22
22
22
44
f8
ENDCHAR
STARTCHAR Eth
ENCODING 208
SWIDTH 606 0
DWIDTH 7 0
BBX 7 6 0 1
BITMAP
3c
22
72
22
44
f8
ENDCHAR
STARTCHAR Nacute
ENCODING 209
SWIDTH 606 0
DWIDTH 7 0
BBX 8 8 0 1
BITMAP
08
00
77
32
3a
4a
4c
ec
ENDCHAR
STARTCHAR Ncaron
ENCODING 210
SWIDTH 606 0
DWIDTH 7 0
BBX 8 9 0 1
BITMAP
0a
0c
00
77
32
3a
4a
4c
ec
ENDCHAR
STARTCHAR Oacute
ENCODING 211
SWIDTH 606 0
DWIDTH 7 0
BBX 6 8 1 1
BITMAP
10
00
38
44
84
84
88
70
ENDCHAR
STARTCHAR Ocircumflex
ENCODING 212
SWIDTH 606 0
DWIDTH 7 0
BBX 6 8 1 1
BITMAP
1c
00
38
44
84
84
88
70
ENDCHAR
STARTCHAR Ohungarumlaut
ENCODING 213
SWIDTH 606 0
DWIDTH 7 0
BBX 6 8 1 1
BITMAP
0c
00
38
44
84
84
88
70
ENDCHAR
STARTCHAR Odieresis
ENCODING 214
SWIDTH 606 0
DWIDTH 7 0
BBX 6 8 1 1
BITMAP
18
00
38
44
84
84
88
70
ENDCHAR
STARTCHAR multiply
ENCODING 215
SWIDTH 606 0
DWIDTH 7 0
BBX 4 4 2 2
BITMAP
50
60
60
90
ENDCHAR
STARTCHAR Rcaron
ENCODING 216
SWIDTH 606 0
DWIDTH 7 0
BBX 7 9 0 1
BITMAP
0a
0c
00
3e
2e
30
28
28
e6
ENDCHAR
STARTCHAR Uring
ENCODING 217
SWIDTH 606 0
DWIDTH 7 0
BBX 7 9 1 1
BITMAP
08
18
00
ee
44
44
84
88
f0
ENDCHAR
STARTCHAR Uacute
ENCODING 218
SWIDTH 606 0
DWIDTH 7 0
BBX 7 8 1 1
BITMAP
10
00
ee
44
44
84
88
f0
ENDCHAR
STARTCHAR Uhungarumlaut
ENCODING 219
SWIDTH 606 0
DWIDTH 7 0
BBX 7 8 1 1
BITMAP
0c
00
ee
44
44
84
88
f0
ENDCHAR
STARTCHAR Udieresis
ENCODING 220
SWIDTH 606 0
DWIDTH 7 0
BBX 7 8 1 1
BITMAP
18
00
ee
44
44
84
88
f0
ENDCHAR
STARTCHAR Yacute
ENCODING 221
SWIDTH 606 0
DWIDTH 7 0
BBX 6 8 2 1
BITMAP
20
00
cc
48
50
20
20
e0
ENDCHAR
STARTCHAR Tcedilla
ENCODING 222
SWIDTH 606 0
DWIDTH 7 0
BBX 7 8 1 -1
BITMAP
7c
92
10
20
20
70
20
60
ENDCHAR
STARTCHAR germandbls
ENCODING 223
SWIDTH 606 0
DWIDTH 7 0
BBX 5 7 1 1
BITMAP
38
48
48
50
48
48
b0
ENDCHAR
STARTCHAR racute
ENCODING 224
SWIDTH 606 0
DWIDTH 7 0
BBX 6 7 1 1
BITMAP
10
00
7c
20
20
20
f0
ENDCHAR
STARTCHAR aacute
ENCODING 225
SWIDTH 606 0
DWIDTH 7 0
BBX 5 7 1 1
BITMAP
10
00
78
08
78
98
e8
ENDCHAR
STARTCHAR acircumflex
ENCODING 226
SWIDTH 606 0
DWIDTH 7 0
BBX 5 7 1 1
BITMAP
18
00
78
08
78
98
e8
ENDCHAR
STARTCHAR abreve
ENCODING 227
SWIDTH 606 0
DWIDTH 7 0
BBX 6 7 1 1
BITMAP
2c
18
78
08
78
98
e8
ENDCHAR
STARTCHAR adieresis
ENCODING 228
SWIDTH 606 0
DWIDTH 7 0
BBX 5 7 1 1
BITMAP
28
00
78
08
78
98
e8
ENDCHAR
STARTCHAR lacute
ENCODING 229
SWIDTH 606 0
DWIDTH 7 0
BBX 5 9 1 1
BITMAP
10
00
60
20
20
20
20
20
f0
ENDCHAR
STARTCHAR cacute
ENCODING 230
SWIDTH 606 0
DWIDTH 7 0
BBX 6 7 1 1
BITMAP
10
00
38
48
80
80
70
ENDCHAR
STARTCHAR ccedilla
ENCODING 231
SWIDTH 606 0
DWIDTH 7 0
BBX 6 7 1 -1
BITMAP
38
48
80
80
70
20
60
ENDCHAR
STARTCHAR ccaron
ENCODING 232
SWIDTH 606 0
DWIDTH 7 0
BBX 6 7 1 1
BITMAP
28
30
38
48
80
80
70
ENDCHAR
STARTCHAR eacute
ENCODING 233
SWIDTH 606 0
DWIDTH 7 0
BBX 6 7 1 1
BITMAP
10
00
38
44
fc
80
78
ENDCHAR
STARTCHAR eogonek
ENCODING 234
SWIDTH 606 0
DWIDTH 7 0
BBX 6 6 1 0
BITMAP
38
44
fc
80
78
30
ENDCHAR
STARTCHAR edieresis
ENCODING 235
SWIDTH 606 0
DWIDTH 7 0
BBX 6 7 1 1
BITMAP
28
00
38
44
fc
80
78
ENDCHAR
STARTCHAR ecaron
ENCODING 236
SWIDTH 606 0
DWIDTH 7 0
BBX 6 7 1 1
BITMAP
28
30
38
44
fc
80
78
ENDCHAR
STARTCHAR iacute
ENCODING 237
SWIDTH 606 0
DWIDTH 7 0
BBX 5 7 1 1
BITMAP
10
00
70
10
10
20
f8
ENDCHAR
STARTCHAR icircumflex
ENCODING 238
SWIDTH 606 0
DWIDTH 7 0
BBX 5 7 1 1
BITMAP
18
00
70
10
10
20
f8
ENDCHAR
STARTCHAR dcaron
ENCODING 239
SWIDTH 606 0
DWIDTH 7 0
BBX 8 7 1 1
BITMAP
02
04
34
48
88
88
78
ENDCHAR
STARTCHAR dbar
ENCODING 240
SWIDTH 606 0
DWIDTH 7 0
BBX 7 6 1 1
BITMAP
3e
38
48
88
88
78
ENDCHAR
STARTCHAR nacute
ENCODING 241
SWIDTH 606 0
DWIDTH 7 0
BBX 6 7 0 1
BITMAP
08
00
7c
24
24
44
ec
ENDCHAR
STARTCHAR ncaron
ENCODING 242
SWIDTH 606 0
DWIDTH 7 0
BBX 6 7 0 1
BITMAP
14
18
7c
24
24
44
ec
ENDCHAR
STARTCHAR oacute
ENCODING 243
SWIDTH 606 0
DWIDTH 7 0
BBX 6 7 1 1
BITMAP
10
00
38
44
84
88
70
ENDCHAR
STARTCHAR ocircumflex
ENCODING 244
SWIDTH 606 0
DWIDTH 7 0
BBX 6 7 1 1
BITMAP
18
00
38
44
84
88
70
ENDCHAR
STARTCHAR ohungarumlaut
ENCODING 245
SWIDTH 606 0
DWIDTH 7 0
BBX 6 7 1 1
BITMAP
18
00
38
44
84
88
70
ENDCHAR
STARTCHAR odieresis
ENCODING 246
SWIDTH 606 0
DWIDTH 7 0
BBX 6 7 1 1
BITMAP
28
00
38
44
84
88
70
ENDCHAR
STARTCHAR divide
ENCODING 247
SWIDTH 606 0
DWIDTH 7 0
BBX 6 5 1 2
BITMAP
10
00
fc
00
10
ENDCHAR
STARTCHAR rcaron
ENCODING 248
SWIDTH 606 0
DWIDTH 7 0
BBX 6 7 1 1
BITMAP
28
30
7c
20
20
20
f0
ENDCHAR
STARTCHAR uring
ENCODING 249
SWIDTH 606 0
DWIDTH 7 0
BBX 5 7 1 1
BITMAP
30
10
c8
48
88
88
f8
ENDCHAR
STARTCHAR uacute
ENCODING 250
SWIDTH 606 0
DWIDTH 7 0
BBX 5 7 1 1
BITMAP
10
00
c8
48
88
88
f8
ENDCHAR
STARTCHAR uhungarumlaut
ENCODING 251
SWIDTH 606 0
DWIDTH 7 0
BBX 5 7 1 1
BITMAP
18
00
c8
48
88
88
f8
ENDCHAR
STARTCHAR udieresis
ENCODING 252
SWIDTH 606 0
DWIDTH 7 0
BBX 5 7 1 1
BITMAP
28
00
c8
48
88
88
f8
ENDCHAR
STARTCHAR yacute
ENCODING 253
SWIDTH 606 0
DWIDTH 7 0
BBX 6 9 1 -1
BITMAP
10
00
ec
48
88
88
70
10
e0
ENDCHAR
STARTCHAR tcedilla
ENCODING 254
SWIDTH 606 0
DWIDTH 7 0
BBX 4 8 2 -1
BITMAP
40
f0
40
80
80
f0
60
e0
ENDCHAR
STARTCHAR dotaccent
ENCODING 255
SWIDTH 606 0
DWIDTH 7 0
BBX 1 1 4 7
BITMAP
80
ENDCHAR
ENDFONT
